<?xml version="1.0" encoding="UTF-8"?>
<svg version="1.1" xmlns="http://www.w3.org/2000/svg" width="3984" height="1089">
<path d="M0 0 C1314.72 0 2629.44 0 3984 0 C3984 359.37 3984 718.74 3984 1089 C2669.28 1089 1354.56 1089 0 1089 C0 729.63 0 370.26 0 0 Z " fill="#74CF4E" transform="translate(0,0)"/>
<path d="M0 0 C3.85554641 -0.0140448 7.71108615 -0.02252272 11.56665039 -0.0300293 C12.65324196 -0.0340551 13.73983353 -0.0380809 14.85935211 -0.0422287 C22.14397424 -0.05286495 29.2150654 0.18620941 36.4375 1.1875 C37.45497314 1.31987061 38.47244629 1.45224121 39.52075195 1.58862305 C114.30540211 11.80661015 182.98534673 45.25156728 238.59765625 95.81640625 C240.24331681 97.31221804 241.89742339 98.79877532 243.55859375 100.27734375 C250.86403259 106.78218655 257.79333076 113.46553876 264.16796875 120.890625 C266.15311587 123.17629546 268.2003983 125.39701378 270.25 127.625 C275.83677502 133.82622574 280.92256779 140.38178273 286 147 C286.73355713 147.94818604 286.73355713 147.94818604 287.48193359 148.91552734 C317.93605217 188.34016504 340.30312767 233.48946642 355 281 C355.23912109 281.76473633 355.47824219 282.52947266 355.72460938 283.31738281 C365.22379858 314.11314137 371.13553123 347.510162 371.16796875 379.76171875 C371.17129715 380.9506221 371.17462555 382.13952545 371.17805481 383.36445618 C371.18308837 385.87130348 371.18546425 388.37815741 371.18530273 390.88500977 C371.18746819 394.63244353 371.20560468 398.37957207 371.22460938 402.12695312 C371.28148596 426.11047478 369.53759636 449.4397044 365 473 C364.72349609 474.44221924 364.72349609 474.44221924 364.44140625 475.91357422 C351.82837592 540.38138184 320.73461905 599.88120415 280 651 C279.18015625 652.03253906 278.3603125 653.06507813 277.515625 654.12890625 C273.21038176 659.46592331 268.72592782 664.60997673 264.10546875 669.67578125 C262.26022445 671.71273925 260.4691833 673.78270847 258.6875 675.875 C244.28535581 692.33934498 226.45822455 708.55583349 206 717 C205.34 717 204.68 717 204 717 C202.84897903 712.81500098 202.705864 708.67977138 202.53515625 704.36328125 C202.49760223 703.50424194 202.46004822 702.64520264 202.4213562 701.76013184 C202.3406064 699.90979003 202.26156513 698.05937303 202.18405151 696.20889282 C201.97827393 691.30551723 201.75964564 686.40272924 201.5390625 681.5 C201.49484665 680.51554398 201.4506308 679.53108795 201.40507507 678.51679993 C201.04292264 670.60812823 200.57958015 662.70903147 200.0663147 654.80892944 C198.4490061 629.74313676 197.90099099 604.73297708 197.82476807 579.62011719 C197.81670836 577.11864066 197.80569132 574.61717158 197.79144287 572.11572266 C197.6808772 550.42879506 199.08744033 529.34262939 203 508 C203.20238281 506.87980469 203.40476562 505.75960938 203.61328125 504.60546875 C206.34667935 491.81048257 213.63136387 481.77435424 221.62792969 471.73291016 C231.62402246 459.39278375 231.62402246 459.39278375 238 445 C238.17289551 444.41718262 238.34579102 443.83436523 238.52392578 443.23388672 C239.59466769 438.20963624 239.23767177 432.92741887 239.25 427.8125 C239.25167175 427.15340637 239.25334351 426.49431274 239.25506592 425.81524658 C239.25682668 414.04874729 238.39863613 402.47015449 237.20800781 390.77172852 C236.22621944 381.04849481 235.58431723 371.34488011 235.11328125 361.58395386 C234.45065465 347.93173951 233.54537351 334.45327346 231 321 C230.86368164 320.24783203 230.72736328 319.49566406 230.58691406 318.72070312 C228.61991331 308.17249126 225.28076417 299.36000616 220 290 C219.01 290 218.02 290 217 290 C206.15518814 314.27172178 210.078866 344.84732802 212.78637695 370.70947266 C213.85509589 381.02624839 214.19335281 391.26072345 214.1875 401.625 C214.18831573 402.31229187 214.18913147 402.99958374 214.18997192 403.70770264 C214.18829804 416.11565818 214.18829804 416.11565818 213 420 C214.32 420 215.64 420 217 420 C216.41221144 424.31309713 214.85255664 427.34520612 212.625 431.0625 C211.71621094 432.59583984 211.71621094 432.59583984 210.7890625 434.16015625 C207.80343533 438.89935046 207.80343533 438.89935046 206 441 C205.34 441 204.68 441 204 441 C195.40708194 429.71366587 197.27909953 416.11854344 197.484375 402.69140625 C197.50067442 400.11654827 197.51399105 397.54166984 197.5244751 394.96678162 C197.55511156 388.89783736 197.61102442 382.82965523 197.68096948 376.76105207 C197.81253014 365.26481963 197.88696536 353.76818817 197.95612335 342.27143669 C197.98383013 338.51527278 198.02704886 334.75953879 198.07269287 331.0035553 C198.09276087 328.67758481 198.11249258 326.35161139 198.13183594 324.02563477 C198.14845276 322.99718948 198.16506958 321.9687442 198.18218994 320.90913391 C198.25188868 309.31567398 196.96612302 299.08775762 191 289 C180.87964816 303.33716511 180.39013098 318.07403877 180.58837891 335.02294922 C180.62477838 338.23047089 180.6293974 341.43682462 180.62890625 344.64453125 C180.6646829 354.85455824 181.05803104 364.86380794 182.2804718 375.00032043 C183.27033632 383.56311797 183.33666164 392.10650501 183.31567383 400.71850586 C183.31247314 403.46051429 183.33624922 406.20147984 183.36132812 408.94335938 C183.39433277 418.36432955 183.05466871 426.97452305 180 436 C179.67 436.99 179.34 437.98 179 439 C178.34 439 177.68 439 177 439 C176.2240218 436.43896524 175.45422546 433.87630691 174.6875 431.3125 C174.47416016 430.61060547 174.26082031 429.90871094 174.04101562 429.18554688 C173.3301205 426.7982125 172.66610658 424.40022833 172 422 C171.74133148 421.13030075 171.48266296 420.2606015 171.21615601 419.36454773 C168.74745595 410.16457899 168.62924706 401.4145444 168.74394035 391.97013855 C168.77819248 389.14884164 168.79349804 386.3279475 168.80458069 383.50646973 C168.8272194 378.51682181 168.86616512 373.52746077 168.9105835 368.53796387 C168.98104901 360.58478775 169.03666376 352.63164308 169.07293892 344.67823792 C169.08927224 341.93957663 169.11885277 339.20129941 169.14964294 336.46276855 C169.21932244 327.5325922 168.95096581 318.7174415 168.11938477 309.82226562 C168.0412728 308.98484581 167.96316084 308.14742599 167.88268185 307.28462982 C167.27843925 301.44082674 166.24071644 295.74067507 165 290 C164.34 290 163.68 290 163 290 C162.71125 290.61875 162.4225 291.2375 162.125 291.875 C161 294 161 294 159 296 C158.22886922 298.5432766 157.55335139 301.04451244 156.9375 303.625 C156.76412109 304.31207031 156.59074219 304.99914062 156.41210938 305.70703125 C154.14199194 314.97885187 153.84016114 323.85901313 153.875 333.375 C153.87790039 335.33566406 153.87790039 335.33566406 153.88085938 337.3359375 C153.91364239 347.23020509 154.17480755 357.11160458 154.5 367 C154.86380032 378.08515396 155.10824545 389.1584902 155.125 400.25 C155.13176758 402.02310547 155.13176758 402.02310547 155.13867188 403.83203125 C155.10190775 425.37580714 155.10190775 425.37580714 152.4375 434.875 C152.03337891 436.35613281 152.03337891 436.35613281 151.62109375 437.8671875 C151.41613281 438.57101562 151.21117188 439.27484375 151 440 C147.98377813 439.06006109 145.5240115 437.91401017 143 436 C139.53647821 428.19318467 140.7265837 418.2265115 140.76953125 409.84375 C140.77072653 408.29016152 140.77117548 406.73657231 140.7709198 405.1829834 C140.77247531 401.94209199 140.78069217 398.70131249 140.79418945 395.46044922 C140.81117762 391.33191679 140.8150031 387.20350684 140.81424427 383.07494354 C140.81451781 379.87138731 140.82002829 376.66785718 140.82724571 373.46430969 C140.83039987 371.94306129 140.83239206 370.42180996 140.83313942 368.90055847 C140.84063118 361.62389582 140.92908918 354.42840486 141.77217102 347.19265747 C142.14620153 343.59293635 142.16235564 340.00295879 142.16796875 336.38671875 C142.17129715 335.61044632 142.17462555 334.83417389 142.17805481 334.03437805 C142.18307112 332.40679508 142.1854648 330.77920202 142.18530273 329.15161133 C142.18748608 326.70310994 142.20569031 324.25506256 142.22460938 321.80664062 C142.26580432 310.26088008 141.60270585 299.06545369 138 288 C137.34 288 136.68 288 136 288 C135.72800781 288.55558594 135.45601562 289.11117188 135.17578125 289.68359375 C134.37682964 291.25760806 133.53906026 292.8123894 132.66796875 294.34765625 C126.26111549 306.09637133 123.399933 318.96426896 121.5546875 332.140625 C121.43038864 333.02364792 121.30608978 333.90667084 121.17802429 334.81645203 C119.51920618 347.03927801 118.35683352 359.31806573 117.21020508 371.59741211 C116.94893979 374.38876173 116.67831194 377.17893697 116.39868164 379.96850586 C114.92550671 394.69345801 113.73341761 409.38850058 113.59396935 424.19421959 C113.57494683 426.18550346 113.54020432 428.17661819 113.50483704 430.16767883 C113.53343364 449.00744605 121.60935108 459.97756963 133.42895508 473.60400391 C153.1155849 496.47209224 163.16267756 519.50228219 161 550 C159.42808368 562.99450828 156.81611211 575.84680903 154.3125 588.6875 C150.81052163 607.37748464 150.6633535 626.0492085 150.59528303 644.99462867 C150.57943295 648.83962684 150.55271523 652.68455088 150.5272522 656.52949524 C150.48084519 663.7784826 150.4439195 671.02748452 150.41057932 678.27654248 C150.37208528 686.54289396 150.32274866 694.80917026 150.27259517 703.07545793 C150.16984318 720.05025057 150.08040218 737.02508706 150 754 C146.85862417 755.43711881 143.71368845 756.86628412 140.56811523 758.29418945 C139.69037193 758.69585579 138.81262863 759.09752213 137.90828705 759.51136017 C129.47271898 763.33219704 120.86954421 766.35380544 112.0625 769.1875 C110.47753003 769.70431264 108.89265173 770.22140649 107.30786133 770.73876953 C103.52696755 771.96786415 99.74086409 773.17963686 95.9510498 774.38092041 C94.23993655 774.92386672 92.53047383 775.4720091 90.82128906 776.02099609 C70.42479836 782.51345175 49.12491268 786.02787046 28 789.25 C27.02530762 789.40098145 26.05061523 789.55196289 25.04638672 789.70751953 C5.6277418 792.52609882 -13.74615077 793.34993673 -33.34960938 793.31567383 C-37.10055857 793.31252055 -40.85071021 793.33606408 -44.6015625 793.36132812 C-102.49913091 793.50926534 -162.80500427 781.54749703 -211 748 C-211.99 747.34 -212.98 746.68 -214 746 C-214.68357844 743.18973307 -215.17389431 740.54134969 -215.5625 737.6875 C-215.68616943 736.83937744 -215.80983887 735.99125488 -215.93725586 735.11743164 C-217.16928417 726.36979013 -218.02641857 717.59487283 -218.75732422 708.79296875 C-218.99961323 706.00445135 -219.28032476 703.22183283 -219.56640625 700.4375 C-220.96059465 685.99811974 -221.2138349 671.62107604 -221.25 657.125 C-221.25517639 656.16802216 -221.26035278 655.21104431 -221.26568604 654.22506714 C-221.38918972 625.30193111 -221.38918972 625.30193111 -215 618 C-212.18141347 615.33800161 -209.42988028 613.70596621 -205.9375 612.125 C-201.1530223 609.78672143 -199.12179188 606.85451267 -197.16796875 601.8828125 C-192.47445238 587.77914263 -192.68346058 573.15162063 -192.73925781 558.47265625 C-192.74986691 555.16647513 -192.73937327 551.86085093 -192.7265625 548.5546875 C-192.71897288 535.71950312 -193.30586551 523.06054437 -194.52856445 510.28369141 C-195.00276768 505.27575721 -195.25565097 500.27605315 -195.4375 495.25 C-196.41404654 473.04851345 -199.58808273 450.93980875 -203 429 C-203.27432861 427.23487061 -203.27432861 427.23487061 -203.55419922 425.43408203 C-213.76145176 354.22960568 -213.76145176 354.22960568 -251.90063477 295.41381836 C-254.40359768 293.72819698 -256.97204667 292.55277105 -259.73046875 291.33203125 C-260.71813232 290.89221924 -261.7057959 290.45240723 -262.72338867 289.99926758 C-263.47467041 289.66950928 -264.22595215 289.33975098 -265 289 C-264.99777939 289.65109238 -264.99555878 290.30218475 -264.99327087 290.9730072 C-264.87063087 329.12223894 -265.02070199 367.2644963 -265.39998055 405.41200447 C-265.83209175 449.08796158 -266.13228227 492.76372336 -266.31640625 536.44140625 C-266.32182332 537.72416215 -266.32724039 539.00691804 -266.33282161 540.32854533 C-266.39787213 555.82029876 -266.45856765 571.3120677 -266.51740879 586.80384582 C-266.55294086 596.1373835 -266.58985657 605.47091478 -266.62768555 614.80444336 C-266.63040982 615.47669957 -266.63313409 616.14895577 -266.63594092 616.84158338 C-266.64963574 620.21925851 -266.66335295 623.59693355 -266.67708123 626.97460854 C-266.78818143 654.31639247 -266.89547191 681.65819021 -267 709 C-288.59664098 704.12480889 -315.13737496 675.75701928 -329 659 C-329.86496094 658.02289062 -330.72992187 657.04578125 -331.62109375 656.0390625 C-367.94888836 614.94479093 -391.21053943 564.05255753 -407 512 C-407.24057129 511.22881836 -407.48114258 510.45763672 -407.72900391 509.66308594 C-414.43665828 488.09819857 -418.30327034 465.15043012 -420.70751953 442.7265625 C-420.89871735 440.94417754 -421.09980578 439.16281851 -421.31201172 437.3828125 C-425.47776691 401.89821218 -424.25952829 365.28228377 -419 330 C-418.83983398 328.89108398 -418.67966797 327.78216797 -418.51464844 326.63964844 C-417.54176018 320.04838213 -416.37362435 313.51932185 -415 307 C-414.81276367 306.10684082 -414.62552734 305.21368164 -414.43261719 304.29345703 C-408.30850549 275.98322219 -398.4804279 248.10202701 -386 222 C-385.56365234 221.07123047 -385.12730469 220.14246094 -384.67773438 219.18554688 C-371.66423585 191.59693001 -354.9730899 166.06722569 -335.40625 142.69433594 C-333.45968459 140.34899498 -331.58094134 137.95081805 -329.6875 135.5625 C-320.23216564 124.00208192 -309.64354406 112.38246524 -298.25 102.6875 C-296.00649706 100.76022414 -293.80314038 98.81554613 -291.64453125 96.79296875 C-283.564216 89.22607746 -274.88452641 82.58850167 -266 76 C-265.39784668 75.55124512 -264.79569336 75.10249023 -264.17529297 74.64013672 C-217.77585962 40.21475069 -162.83030044 14.0231654 -106 3 C-105.10700699 2.81981323 -104.21401398 2.63962646 -103.29396057 2.45397949 C-93.09048873 0.62569849 -83.01032637 0.77491589 -72.6875 0.875 C-70.8678435 0.88505604 -69.04818159 0.89417722 -67.22851562 0.90234375 C-62.81887396 0.9241352 -58.40949858 0.95851836 -54 1 C-53.99761165 1.77817204 -53.99522329 2.55634407 -53.99276257 3.35809708 C-53.93322692 22.42844505 -53.85743745 41.49866784 -53.76428509 60.56888199 C-53.71961305 69.79167781 -53.68013548 79.01443747 -53.65356445 88.23730469 C-53.6303496 96.29040043 -53.59669854 104.34337889 -53.55129844 112.39638114 C-53.52767711 116.64726893 -53.50874778 120.89804288 -53.50238609 125.14899445 C-53.45964266 150.42597719 -52.51732258 175.21537814 -47 200 C-32.74863174 269.30993306 -32.74863174 269.30993306 -47 291 C-51.85853356 296.76873985 -58.63310653 300.29446592 -64.99316406 304.16357422 C-70.95212239 307.84230469 -76.07701448 312.00353708 -81 317 C-81.91265625 317.8971875 -81.91265625 317.8971875 -82.84375 318.8125 C-105.48461715 342.68832355 -110.81717729 375.28139993 -110.13183594 406.71826172 C-108.89456489 437.51714595 -92.52210966 465.27486169 -70.8125 486.125 C-56.04018428 499.26740937 -37.46210114 506.61370613 -17.72265625 506.23828125 C-0.38475888 505.12851027 14.31031272 496.39141082 26 484 C26.78761719 483.16984375 27.57523438 482.3396875 28.38671875 481.484375 C52.0033987 454.61164319 59.74946975 418.48608875 57.87988281 383.76953125 C55.15167696 351.17007783 31.36670088 319.9573301 7.22216797 299.49316406 C2.25266695 295.46951139 -2.87790285 291.71833971 -8.25 288.25 C-11 286 -11 286 -11.65234375 283.59375 C-14.60142184 253.10889782 -8.89417227 221.99512832 -3.47363281 192.09667969 C-3.29928711 191.10313477 -3.12494141 190.10958984 -2.9453125 189.0859375 C-2.78820801 188.20728027 -2.63110352 187.32862305 -2.46923828 186.42333984 C-0.98793597 175.6164611 -0.83436018 164.82600055 -0.79467773 153.94042969 C-0.78507809 152.2539497 -0.77506686 150.56747202 -0.76467896 148.8809967 C-0.73784957 144.33847861 -0.71672235 139.79595036 -0.69667697 135.25339794 C-0.67468047 130.49282713 -0.64735918 125.73228683 -0.62062073 120.97174072 C-0.57087732 111.97295983 -0.52587108 102.97416184 -0.48259836 93.97534776 C-0.43306827 83.72373286 -0.37820907 73.47214861 -0.32291877 63.22056341 C-0.20938077 42.14707087 -0.10248132 21.07354902 0 0 Z " fill="#FDFDFD" transform="translate(2185,116)"/>
<path d="M0 0 C39.27 0 78.54 0 119 0 C124.62438806 13.49853135 124.62438806 13.49853135 126.63354492 18.87670898 C127.09082474 20.097285 127.54810455 21.31786102 128.01924133 22.57542419 C128.50634146 23.88230498 128.99341647 25.18919513 129.48046875 26.49609375 C130.00692259 27.90344595 130.53359625 29.31071593 131.06047058 30.71791077 C132.18457338 33.72131912 133.30738301 36.72520623 134.42913818 39.72949219 C137.14291229 46.99714501 139.86366432 54.262187 142.58369446 61.52750015 C143.52459922 64.0408815 144.46524826 66.55435846 145.40588379 69.06784058 C151.43262936 85.169125 157.49380876 101.2573591 163.56149673 117.34325027 C165.99746926 123.8014703 168.43254793 130.26002737 170.8671875 136.71875 C171.12916491 137.41372652 171.39114231 138.10870304 171.66105843 138.82473946 C177.37880197 153.99431088 183.06973019 169.17389905 188.75683594 184.35498047 C196.27153892 204.41264968 203.8189652 224.45787448 211.375 244.5 C220.11203995 267.67493321 228.8361094 290.85459273 237.52050781 314.04931641 C239.82371566 320.20046521 242.13079223 326.35016302 244.4375 332.5 C245.144548 334.38541038 245.85158157 336.27082618 246.55859375 338.15625 C246.84017334 338.90712891 247.12175293 339.65800781 247.41186523 340.43164062 C247.60594971 340.94919922 247.80003418 341.46675781 248 342 C249.98 342 251.96 342 254 342 C254.29828705 341.20456787 254.5965741 340.40913574 254.90390015 339.58959961 C255.57076709 337.81128776 256.23763409 336.03297594 256.90450191 334.25466442 C258.24983307 330.66711865 259.59515865 327.0795708 260.94047546 323.49201965 C263.69091247 316.15745707 266.441391 308.82291008 269.19204044 301.48842716 C270.75956126 297.30869998 272.3270538 293.1289622 273.89453125 288.94921875 C274.20590719 288.1189234 274.51728313 287.28862804 274.83809471 286.43317223 C278.5225209 276.60837274 282.20588679 266.78317801 285.88671875 256.95703125 C295.1976373 232.10411493 304.54748883 207.26600227 313.90945435 182.43228149 C320.39656064 165.22441004 326.87898984 148.01488783 333.32653809 130.79214478 C337.57588963 119.44281693 341.844617 108.10084836 346.12109375 96.76171875 C346.67815871 95.28453654 347.23522147 93.80735351 347.7922821 92.33016968 C350.07633856 86.27360368 352.36043223 80.2170518 354.64523315 74.1607666 C360.1899153 59.4626075 365.73122357 44.76351966 371.1953125 30.03515625 C371.76986931 28.48673286 371.76986931 28.48673286 372.35603333 26.9070282 C374.09037589 22.22973178 375.82045611 17.5509096 377.54467773 12.86987305 C378.1352358 11.272617 378.72581074 9.6753672 379.31640625 8.078125 C379.57861969 7.36193497 379.84083313 6.64574493 380.11099243 5.90785217 C381.88701385 1.11298615 381.88701385 1.11298615 383 0 C422.6 0 462.2 0 503 0 C503 161.04 503 322.08 503 488 C472.64 488 442.28 488 411 488 C410.88871344 457.13047807 410.79681335 426.26115786 410.74467335 395.39149657 C410.73842359 391.7049264 410.73195162 388.01835665 410.7253418 384.33178711 C410.72403024 383.59819298 410.72271869 382.86459885 410.7213674 382.10877459 C410.7025513 371.8411469 410.67179251 361.57361667 410.63132729 351.30605237 C410.56165628 333.62202158 410.51425503 315.93808468 410.51171875 298.25390625 C410.51159214 297.56786979 410.51146552 296.88183333 410.51133507 296.17500788 C410.50475157 201.95488452 410.50475157 201.95488452 417 166 C415.02 166 413.04 166 411 166 C410.81846878 166.5561499 410.63693756 167.1122998 410.4499054 167.68530273 C408.74512245 172.86065261 406.92846106 177.97420751 404.98046875 183.0625 C404.68991104 183.8256955 404.39935333 184.58889099 404.09999084 185.37521362 C403.13122308 187.91760118 402.15947884 190.45883848 401.1875 193 C400.48467175 194.84129761 399.78187314 196.68260654 399.07910156 198.52392578 C391.76837264 217.66160081 384.3819216 236.77014322 376.99809265 255.87969971 C371.31771278 270.5809689 365.65390365 285.2885303 360 300 C353.01527215 318.17257797 346.01325604 336.33841325 339 354.5 C332.35971713 371.6963578 325.72626458 388.89530091 319.11001587 406.10092163 C317.88698818 409.28132552 316.66360565 412.46159275 315.44018555 415.6418457 C311.54432565 425.77086651 307.65322325 435.90168308 303.77154541 446.03614807 C301.90407 450.91161812 300.03420984 455.78617333 298.16436768 460.66073608 C297.26766635 463.00005815 296.37194484 465.33975605 295.47723389 467.67984009 C294.24371061 470.90596671 293.00698052 474.1308464 291.76953125 477.35546875 C291.21639503 478.80601151 291.21639503 478.80601151 290.65208435 480.28585815 C290.31548294 481.16114166 289.97888153 482.03642517 289.63208008 482.93823242 C289.33932693 483.70294357 289.04657379 484.46765472 288.74494934 485.25553894 C288 487 288 487 287 488 C284.76070114 488.09436529 282.5183825 488.11742327 280.27709961 488.11352539 C279.5746965 488.11367142 278.8722934 488.11381744 278.14860535 488.1139679 C275.81648722 488.11326872 273.484448 488.10547617 271.15234375 488.09765625 C269.53951562 488.09579208 267.92668693 488.09436818 266.31385803 488.09336853 C262.06084643 488.08954323 257.80786876 488.07971285 253.55487061 488.06866455 C249.2182257 488.05845069 244.88157533 488.05387096 240.54492188 488.04882812 C232.02993231 488.03809059 223.51497037 488.02101403 215 488 C212.17125217 481.2545278 209.36781807 474.5041395 206.71484375 467.6875 C206.42164749 466.9371196 206.12845123 466.1867392 205.82637024 465.41362 C204.86178738 462.94304406 203.89949185 460.47158588 202.9375 458 C202.59674438 457.12574371 202.25598877 456.25148743 201.90490723 455.35073853 C193.38164421 433.4806049 184.96913242 411.56781685 176.55566406 389.65527344 C172.41560395 378.8730056 168.27060051 368.09263862 164.125 357.3125 C163.71608521 356.24905365 163.30717041 355.1856073 162.88586426 354.0899353 C156.27096536 336.8879858 149.63879507 319.69273968 143 302.5 C133.90853129 278.95547825 124.83964475 255.40235377 115.78477478 231.84373474 C112.6391617 223.66040902 109.4898969 215.47849245 106.33984375 207.296875 C104.94796815 203.6809784 103.55615473 200.06505788 102.16436768 196.4491272 C101.26888458 194.12300989 100.37317626 191.79697927 99.47723389 189.47103882 C98.24072926 186.2608725 97.00504053 183.05039325 95.76953125 179.83984375 C95.40077377 178.88313782 95.0320163 177.92643188 94.65208435 176.94073486 C94.14718224 175.62803619 94.14718224 175.62803619 93.63208008 174.28881836 C93.33932693 173.52854843 93.04657379 172.7682785 92.74494934 171.98497009 C92.12636436 170.33670674 91.5567243 168.6701729 91 167 C89.02 166.67 87.04 166.34 85 166 C85.13277344 167.15113281 85.26554687 168.30226563 85.40234375 169.48828125 C86.44797007 178.82175745 87.27105699 188.1175845 87.65795898 197.50317383 C87.83825852 201.68860051 88.20368257 205.77780131 88.76147461 209.93481445 C89.29799848 214.58011175 89.40310466 219.26422982 89.60546875 223.93359375 C89.66154297 225.12662109 89.66154297 225.12662109 89.71875 226.34375 C89.74904297 227.04693359 89.77933594 227.75011719 89.81054688 228.47460938 C89.96196185 230.49295532 90.21621604 232.50348984 90.50432491 234.50689697 C91.12960046 239.48107784 91.13568022 244.40766921 91.12025452 249.41503906 C91.12110894 250.438679 91.12196337 251.46231894 91.12284368 252.51697826 C91.12448552 255.93321187 91.11899837 259.34939594 91.11352539 262.765625 C91.11324321 265.21997578 91.11340185 267.67432664 91.1139679 270.12867737 C91.11419532 275.40566642 91.11136627 280.68264018 91.10573006 285.95962524 C91.09758647 293.58916134 91.09499691 301.21869146 91.09374207 308.84823143 C91.09155604 321.22808868 91.08490813 333.60793931 91.07543945 345.98779297 C91.06625372 358.01025357 91.05917857 370.03271238 91.05493164 382.05517578 C91.05466892 382.79683589 91.05440619 383.538496 91.05413551 384.30263066 C91.05283043 388.02349932 91.05156673 391.74436799 91.05032361 395.46523666 C91.03996497 426.31016355 91.0215342 457.15507831 91 488 C60.97 488 30.94 488 0 488 C0 326.96 0 165.92 0 0 Z " fill="#FDFDFD" transform="translate(234,275)"/>
<path d="M0 0 C260.50492264 0 260.50492264 0 305 44 C328.55516525 67.83269297 340.3125887 96.30985619 340.24438477 129.68530273 C339.82208898 161.4182092 327.1824924 189.41170323 304.74975586 211.67651367 C284.49183381 231 284.49183381 231 275 231 C275 233.31 275 235.62 275 238 C275.61383545 238.16363037 276.2276709 238.32726074 276.86010742 238.49584961 C283.07330794 240.24233004 288.62895323 242.51948133 294.3125 245.5625 C295.13282715 245.99868652 295.9531543 246.43487305 296.79833984 246.88427734 C304.17083309 250.90891694 310.59456794 255.57242802 317 261 C317.81726562 261.66644531 318.63453125 262.33289063 319.4765625 263.01953125 C338.54800503 279.10901283 350.04179501 302.17949038 356 326 C356.2475 326.95648437 356.495 327.91296875 356.75 328.8984375 C363.0579381 358.77353322 355.65318871 393.82637998 339.27734375 419.33984375 C315.26189651 455.25041707 279.29343015 474.28389879 238 484 C159.53815013 495.76927748 79.3396356 487 0 487 C0 326.29 0 165.58 0 0 Z " fill="#FDFDFD" transform="translate(2609,276)"/>
<path d="M0 0 C1.73636719 0.84691406 1.73636719 0.84691406 3.5078125 1.7109375 C44.15328548 22.57234893 73.83777678 61.66024011 88.28125 104.44140625 C94.48936445 123.89326929 97.41968132 143.68389821 97.3125 164.0625 C97.31100952 164.77211884 97.30951904 165.48173767 97.3079834 166.21286011 C97.23942559 184.51498164 95.30977022 202.43162155 90 220 C89.75765625 220.80646973 89.5153125 221.61293945 89.265625 222.44384766 C75.66359477 266.94215611 47.75175917 305.22570851 6.54980469 327.82617188 C-3.93275412 333.37720301 -14.54606463 337.79584826 -25.86230469 341.33007812 C-27.77315816 341.92891115 -29.67267109 342.56365722 -31.5703125 343.203125 C-49.43349083 349.08436799 -67.43261877 350.20154307 -86.1027832 350.24023438 C-88.90021295 350.24987155 -91.69688447 350.28094551 -94.49414062 350.3125 C-110.76724896 350.40906647 -126.63493076 348.71984875 -142.3125 344.1875 C-143.68656006 343.79957275 -143.68656006 343.79957275 -145.08837891 343.40380859 C-169.04225191 336.46437285 -192.27236576 324.56675336 -211 308 C-211.97453125 307.14664062 -212.9490625 306.29328125 -213.953125 305.4140625 C-243.25248017 279.39793089 -262.97288192 244.64914946 -270 206 C-270.13535156 205.27619141 -270.27070313 204.55238281 -270.41015625 203.80664062 C-277.78177631 162.73144238 -273.98628267 117.4462319 -255 80 C-254.4121875 78.82308594 -253.824375 77.64617187 -253.21875 76.43359375 C-245.21417231 61.02478171 -234.81726034 47.64891697 -223 35 C-222.20207031 34.13632812 -221.40414062 33.27265625 -220.58203125 32.3828125 C-202.55953373 13.56961539 -180.18795895 0.25887773 -156 -9 C-155.32855957 -9.26006836 -154.65711914 -9.52013672 -153.96533203 -9.78808594 C-149.37565803 -11.51836304 -144.75411955 -12.82671398 -140 -14 C-139.11280273 -14.22703613 -138.22560547 -14.45407227 -137.31152344 -14.68798828 C-92.11641881 -25.77315574 -41.63752857 -20.49558868 0 0 Z " fill="#FDFDFD" transform="translate(3292,424)"/>
<path d="M0 0 C3.18566072 0.01068443 6.37075326 0.00007575 9.55639648 -0.01269531 C21.01354035 -0.02055937 32.06751274 0.47038499 43.39038086 2.26074219 C45.02441931 2.48655418 46.65852146 2.71190645 48.29272461 2.93652344 C83.63916089 8.33308747 118.90942057 24.37529149 140.72241211 53.53027344 C150.88062851 67.52758497 157.87780897 82.51490934 162.20288086 99.26074219 C162.39785156 100.00606201 162.59282227 100.75138184 162.79370117 101.51928711 C166.60362029 117.37211193 166.67380615 133.38362776 166.61743164 149.5793457 C166.61686628 151.87739049 166.61718652 154.17543564 166.61831665 156.47348022 C166.61888629 162.66032506 166.60719541 168.84709103 166.59316874 175.03391767 C166.58059608 181.51877766 166.57948575 188.00363982 166.57711792 194.48851013 C166.57162448 205.35620515 166.55916477 216.22387134 166.54125977 227.09155273 C166.52285151 238.27644713 166.50871934 249.46133371 166.50024414 260.64624023 C166.49971869 261.3377439 166.49919325 262.02924757 166.49865188 262.7417059 C166.49604146 266.21139367 166.49351413 269.68108149 166.49102807 273.15076935 C166.47035476 301.85411602 166.4335173 330.55741965 166.39038086 359.26074219 C137.35038086 359.26074219 108.31038086 359.26074219 78.39038086 359.26074219 C78.39038086 347.71074219 78.39038086 336.16074219 78.39038086 324.26074219 C76.08038086 324.26074219 73.77038086 324.26074219 71.39038086 324.26074219 C71.17639648 324.79570313 70.96241211 325.33066406 70.74194336 325.88183594 C59.1312369 346.31802159 30.09534911 360.11274636 8.39038086 366.26074219 C-3.38965605 369.4299907 -15.23302444 369.53931677 -27.35961914 369.57324219 C-28.10661072 369.57700867 -28.85360229 369.58077515 -29.62322998 369.58465576 C-61.56320776 369.66616884 -90.79891817 360.70618517 -115.60961914 340.26074219 C-116.70209961 339.38869141 -116.70209961 339.38869141 -117.81665039 338.49902344 C-139.21256036 320.62538236 -150.82470465 292.46548135 -153.60961914 265.26074219 C-155.94523312 235.68424272 -149.41188403 206.00495728 -129.94165039 183.03808594 C-104.50286496 154.13940888 -69.68839849 139.3201299 -31.60961914 136.26074219 C-23.76127413 135.84605593 -15.90458459 135.82158505 -8.04711914 135.82324219 C-6.43179794 135.82164093 -6.43179794 135.82164093 -4.78384399 135.82000732 C24.3029467 135.8615056 51.36859513 140.18072342 78.39038086 151.26074219 C78.26384632 128.49196806 76.78737187 111.36153171 61.14819336 93.73339844 C42.72541349 75.58975159 17.13431558 73.80374846 -7.26957703 73.96037292 C-37.22479296 74.32587489 -63.22283079 89.35542345 -83.80883789 110.38964844 C-84.4030957 111.00710938 -84.99735352 111.62457031 -85.60961914 112.26074219 C-89.32126072 110.61803 -92.2912821 108.31181532 -95.48461914 105.82324219 C-96.05196777 105.38222168 -96.61931641 104.94120117 -97.20385742 104.48681641 C-99.00870754 103.08183437 -100.80940379 101.67165611 -102.60961914 100.26074219 C-103.75541113 99.36615798 -104.90124389 98.471626 -106.04711914 97.57714844 C-112.81897479 92.28078968 -119.55782806 86.94267673 -126.25195312 81.54833984 C-129.06744858 79.28060181 -131.89300107 77.04654598 -134.77758789 74.86621094 C-135.6915332 74.17140625 -136.60547852 73.47660156 -137.54711914 72.76074219 C-138.7362793 71.87902344 -138.7362793 71.87902344 -139.94946289 70.97949219 C-141.60961914 69.26074219 -141.60961914 69.26074219 -141.60961914 65.26074219 C-138.97916855 61.617081 -135.72646874 58.49167852 -132.60961914 55.26074219 C-131.80137695 54.38933594 -130.99313477 53.51792969 -130.16040039 52.62011719 C-107.78400587 29.1814436 -77.05586642 12.81371331 -45.73461914 5.13574219 C-44.74848633 4.884375 -43.76235352 4.63300781 -42.74633789 4.37402344 C-39.70971921 3.61980475 -36.66735658 2.92398972 -33.60961914 2.26074219 C-32.68028564 2.05771484 -31.75095215 1.8546875 -30.79345703 1.64550781 C-20.60604451 -0.24763126 -10.32268476 -0.04113569 0 0 Z " fill="#FDFDFD" transform="translate(1372.609619140625,404.7392578125)"/>
<path d="M0 0 C0.8259819 -0.00974854 1.65196381 -0.01949707 2.50297546 -0.02954102 C52.3124421 -0.49575536 97.39833153 9.72054909 134.19921875 45.23828125 C135.05128906 46.0271875 135.90335938 46.81609375 136.78125 47.62890625 C167.36296924 76.71765967 182.85110196 122.96011568 184.30957031 164.37158203 C184.36863575 167.70277239 184.38479957 171.03158914 184.38671875 174.36328125 C184.39896484 175.45898438 184.41121094 176.5546875 184.42382812 177.68359375 C184.44024797 187.14142451 183.32631791 195.6579384 182.19921875 205.23828125 C96.06921875 205.23828125 9.93921875 205.23828125 -78.80078125 205.23828125 C-72.12647114 235.27267675 -62.06130706 258.88591726 -35.98828125 276.05078125 C-14.22219981 289.84729634 13.86593641 292.87115887 38.94921875 288.05078125 C55.51865111 284.29457518 70.22162419 278.3976489 83.19921875 267.23828125 C83.80121094 266.78066406 84.40320312 266.32304688 85.0234375 265.8515625 C92.96037974 259.69071922 98.74171207 250.56882017 104.19921875 242.23828125 C107.89138939 242.8345886 110.80686923 243.86917634 114.12890625 245.57421875 C115.07741455 246.05592529 116.02592285 246.53763184 117.00317383 247.03393555 C118.01661865 247.55511963 119.03006348 248.07630371 120.07421875 248.61328125 C122.24135045 249.71258918 124.40934126 250.81020492 126.578125 251.90625 C127.68043457 252.4636084 128.78274414 253.0209668 129.91845703 253.59521484 C134.92038901 256.10027529 139.96140641 258.52009299 145.01171875 260.92578125 C146.4184082 261.59843018 146.4184082 261.59843018 147.85351562 262.28466797 C152.49603336 264.49865532 157.15059308 266.68124211 161.828125 268.8203125 C163.15589966 269.43289917 163.15589966 269.43289917 164.51049805 270.05786133 C166.17841603 270.82582471 167.85029754 271.58525684 169.52661133 272.3347168 C171.45508617 273.22528618 173.33344366 274.22289345 175.19921875 275.23828125 C176.19921875 278.23828125 176.19921875 278.23828125 174.6796875 281.35546875 C173.92868498 282.61610428 173.16331513 283.86824921 172.38671875 285.11328125 C171.97873047 285.77803467 171.57074219 286.44278809 171.15039062 287.12768555 C165.05943392 296.86788552 157.93932649 305.65722041 150.15234375 314.09765625 C148.57019267 315.83169383 147.08974994 317.58527507 145.63671875 319.42578125 C142.45655303 323.09520324 138.92533281 326.13647202 135.19921875 329.23828125 C134.45800781 329.86734375 133.71679688 330.49640625 132.953125 331.14453125 C109.60995951 350.46301304 81.96097979 362.19863281 52.19921875 367.23828125 C51.10569092 367.42519531 50.01216309 367.61210938 48.88549805 367.8046875 C39.04167728 369.30896574 29.3709908 369.54649891 19.42944336 369.49902344 C16.76848502 369.4883085 14.10820359 369.49898113 11.44726562 369.51171875 C-2.12997303 369.52335737 -15.40367886 368.55371087 -28.67578125 365.48828125 C-29.41787842 365.3176416 -30.15997559 365.14700195 -30.92456055 364.97119141 C-78.16323656 353.69521544 -116.42487968 323.93269388 -141.79614258 282.95019531 C-154.4509534 261.90070652 -161.87094368 238.55324513 -164.80078125 214.23828125 C-164.89504395 213.54686035 -164.98930664 212.85543945 -165.08642578 212.14306641 C-167.71537016 190.48602012 -167.91287445 165.47764989 -162.80078125 144.23828125 C-162.48681396 142.90724365 -162.48681396 142.90724365 -162.16650391 141.54931641 C-150.60805559 93.73676835 -122.77262024 52.06912749 -80.75634766 25.96826172 C-76.19219278 23.22173998 -71.53271017 20.68267231 -66.80078125 18.23828125 C-66.1257959 17.88781738 -65.45081055 17.53735352 -64.75537109 17.17626953 C-44.7610349 6.93595897 -22.57019708 0.22202469 0 0 Z " fill="#FDFDFD" transform="translate(982.80078125,404.76171875)"/>
<path d="M0 0 C13.23541057 -0.91136718 26.46319393 -1.60007011 39.72378349 -2.02067471 C45.88649526 -2.22282749 52.0275305 -2.4953409 58.17773438 -2.94213867 C96.60963349 -5.66004803 96.60963349 -5.66004803 107.42460632 1.63561249 C117.30611978 10.27895327 123.11934431 22.5114044 128.64556885 34.18869019 C131.66994759 40.53152353 135.50382375 46.15333418 139.53125 51.90625 C140.72885165 53.71205233 141.92049029 55.52182675 143.10546875 57.3359375 C143.66540527 58.18768555 144.2253418 59.03943359 144.80224609 59.91699219 C145.36250488 60.76938477 145.92276367 61.62177734 146.5 62.5 C148.28515353 65.21413707 150.07066228 67.9280393 151.85668945 70.64160156 C152.99130668 72.36577324 154.12528674 74.09036444 155.25854492 75.81542969 C157.83829525 79.73823989 160.4314899 83.65040915 163.0625 87.5390625 C163.53417603 88.23801636 164.00585205 88.93697021 164.49182129 89.65710449 C165.36789187 90.95258151 166.24778788 92.24548308 167.13220215 93.53527832 C170 97.77862491 170 97.77862491 170 100 C172.31 100 174.62 100 177 100 C177.26321045 99.28714844 177.5264209 98.57429687 177.79760742 97.83984375 C179.05205328 94.87705915 180.54154405 92.29509254 182.23828125 89.5625 C182.88676025 88.51368652 183.53523926 87.46487305 184.20336914 86.38427734 C184.89938232 85.26746582 185.59539551 84.1506543 186.3125 83 C187.03999058 81.82655677 187.76711838 80.65288855 188.49389648 79.47900391 C189.96458041 77.10483794 191.43739428 74.73201559 192.91210938 72.36035156 C194.75346439 69.39678626 196.58951067 66.43006659 198.421875 63.4609375 C217.30249493 32.87474007 217.30249493 32.87474007 220.78198242 27.88623047 C222.81603196 24.71221666 223.78632741 21.5470542 224.8684082 17.94580078 C227.52774702 10.6034682 230.72957984 3.6757774 238 0 C254.13161015 -4.7226165 273.00217293 -2.3459288 289.55822754 -1.64794922 C296.03240001 -1.40103468 302.50879051 -1.29253682 308.98632812 -1.171875 C321.66327361 -0.91556907 334.3309142 -0.51152268 347 0 C345.64246144 2.77236489 344.20831872 5.238309 342.3828125 7.73046875 C341.86460937 8.44203125 341.34640625 9.15359375 340.8125 9.88671875 C340.255625 10.64597656 339.69875 11.40523438 339.125 12.1875 C337.9393192 13.81583496 336.75444117 15.44475473 335.5703125 17.07421875 C334.9712207 17.89841309 334.37212891 18.72260742 333.75488281 19.57177734 C331.13827108 23.19237004 328.56717542 26.84426659 326 30.5 C321.92000836 36.30417782 317.79132119 42.07000429 313.625 47.8125 C309.01864849 54.16418373 304.48654145 60.56316619 300 67 C294.98703438 74.19209372 289.90209527 81.32605784 284.75390625 88.421875 C281.13021446 93.42098265 277.55102115 98.449049 274 103.5 C269.3386891 110.12926626 264.61055504 116.70728627 259.85546875 123.26953125 C255.70249603 129.00836467 251.60770689 134.7860196 247.53710938 140.58349609 C244.88698124 144.35071466 242.21161942 148.09705046 239.5 151.8203125 C238.91605469 152.62275391 238.33210938 153.42519531 237.73046875 154.25195312 C236.61122451 155.78680837 235.48902334 157.31951362 234.36328125 158.84960938 C231.2641641 163.10016174 228.52124928 167.38175012 226 172 C232.94948118 182.20208398 239.94076681 192.37349888 247 202.5 C253.55496791 211.90451136 260.04752336 221.34965056 266.50927734 230.81835938 C270.21921605 236.24777508 273.95135595 241.66197313 277.67919922 247.07910156 C278.97645558 248.96575832 280.27174505 250.85374916 281.56640625 252.7421875 C286.9707539 260.62132846 292.41298177 268.47321691 297.875 276.3125 C304.47770883 285.79055691 311.01978013 295.3082397 317.53125 304.84912109 C319.78705533 308.15258601 322.04819439 311.45235686 324.3125 314.75 C324.73805176 315.37076416 325.16360352 315.99152832 325.60205078 316.63110352 C328.45657224 320.78525715 331.34269189 324.91616184 334.2421875 329.0390625 C335.34373169 330.60962402 335.34373169 330.60962402 336.4675293 332.21191406 C337.93118488 334.29737779 339.39871181 336.38013058 340.87036133 338.45996094 C341.53575928 339.4090332 342.20115723 340.35810547 342.88671875 341.3359375 C343.48701904 342.18720215 344.08731934 343.0384668 344.70581055 343.91552734 C346 346 346 346 346 348 C332.38789701 348.44133097 318.77750882 348.7783519 305.15969467 348.98443127 C298.83500323 349.08337646 292.51522309 349.21739168 286.19335938 349.43334961 C280.08502825 349.64069344 273.98139912 349.75356323 267.86981964 349.80266762 C265.54563568 349.83762602 263.22169396 349.90591114 260.8995285 350.00887108 C243.1774589 350.76296317 243.1774589 350.76296317 237.85993385 346.13910294 C234.08764763 341.59190649 231.46685343 336.58972689 229.04460239 331.22619724 C227.68344756 328.32538142 225.97327899 325.74490127 224.13671875 323.125 C223.28968384 321.86320923 223.28968384 321.86320923 222.42553711 320.57592773 C221.85198486 319.72587158 221.27843262 318.87581543 220.6875 318 C214.38833645 308.60404097 208.14630271 299.17219338 201.93585205 289.71743774 C200.44625289 287.45081867 198.9544973 285.18563099 197.46240234 282.9206543 C193.03589325 276.19467487 188.63486378 269.45679917 184.3359375 262.6484375 C183.64701416 261.56506104 182.95809082 260.48168457 182.24829102 259.36547852 C180.99189985 257.38399642 179.74687172 255.39524626 178.51538086 253.39819336 C177.69759155 252.11247437 177.69759155 252.11247437 176.86328125 250.80078125 C176.40219971 250.05997314 175.94111816 249.31916504 175.46606445 248.5559082 C174.98226318 248.0424585 174.49846191 247.52900879 174 247 C172.68 247 171.36 247 170 247 C168.3003517 248.83837491 168.3003517 248.83837491 166.890625 251.37109375 C166.30917725 252.32516113 165.72772949 253.27922852 165.12866211 254.26220703 C164.50870361 255.31005371 163.88874512 256.35790039 163.25 257.4375 C161.90383607 259.65325108 160.55613101 261.86806647 159.20703125 264.08203125 C158.86100357 264.65403259 158.51497589 265.22603394 158.15846252 265.81536865 C154.52352311 271.81958056 150.73772782 277.72428093 146.9375 283.625 C145.59210577 285.7211346 144.2470515 287.81748744 142.90234375 289.9140625 C142.24862793 290.93274414 141.59491211 291.95142578 140.92138672 293.00097656 C137.93636696 297.66018656 134.96775863 302.32978321 132 307 C128.23502713 312.92424747 124.46282355 318.84373833 120.67578125 324.75390625 C120.31161102 325.32233246 119.9474408 325.89075867 119.57223511 326.47640991 C117.79595145 329.2486214 116.01871229 332.02021074 114.24023438 334.79101562 C113.60021484 335.78939453 112.96019531 336.78777344 112.30078125 337.81640625 C111.73528564 338.69756104 111.16979004 339.57871582 110.5871582 340.48657227 C108.9231413 342.9292448 108.9231413 342.9292448 108.03024292 345.62161255 C106 348 106 348 104.03602505 348.45138836 C101.32163554 348.61943922 98.6482506 348.61748769 95.92895508 348.56762695 C94.37748024 348.56872215 94.37748024 348.56872215 92.79466248 348.56983948 C89.36908893 348.5663505 85.94486783 348.52742551 82.51953125 348.48828125 C80.1472803 348.47895784 77.77501974 348.4718395 75.40275574 348.46684265 C69.15371196 348.447736 62.90524765 348.39860261 56.65643311 348.34332275 C50.28210287 348.29220989 43.90767915 348.26934558 37.53320312 348.24414062 C25.02188793 348.19048826 12.51097476 348.10608912 0 348 C1.57165884 343.86649396 3.4809497 340.75024574 6.125 337.1875 C10.95149038 330.58935227 15.48968174 323.81724727 20 317 C24.78600617 309.77528232 29.61844138 302.60912126 34.7019043 295.59057617 C37.837627 291.25631056 40.80990276 286.83048859 43.7578125 282.3671875 C46.52376471 278.19404117 49.35744521 274.0673207 52.1875 269.9375 C53.02051636 268.72187378 53.02051636 268.72187378 53.87036133 267.48168945 C55.01153887 265.81693397 56.15289796 264.15230292 57.29443359 262.48779297 C60.03256178 258.4938728 62.76611405 254.49682464 65.5 250.5 C66.58330998 248.91665069 67.66664334 247.33331738 68.75 245.75 C69.28625 244.96625 69.8225 244.1825 70.375 243.375 C75.25 236.25 75.25 236.25 76.87451172 233.87573242 C77.95949599 232.28997365 79.04445687 230.70419887 80.12939453 229.1184082 C82.81227845 225.19705358 85.49554807 221.2759641 88.1796875 217.35546875 C94.1052951 208.69963859 100.02492079 200.03973537 105.9375 191.375 C106.55222168 190.47483154 107.16694336 189.57466309 107.80029297 188.6472168 C111.56910655 183.12150881 115.30217093 177.57346571 119 172 C115.86146577 166.26140555 112.27968127 160.95882653 108.5 155.625 C107.88125 154.74650391 107.2625 153.86800781 106.625 152.96289062 C104.75302147 150.30644568 102.87693867 147.65294181 101 145 C99.96855199 143.53920229 98.93728861 142.0782742 97.90625 140.6171875 C96.4502425 138.55422662 94.99396473 136.49146061 93.53662109 134.42944336 C86.72597743 124.79019464 79.97208154 115.1111068 73.20898438 105.43847656 C67.1551148 96.78111226 61.09770479 88.12656637 55 79.5 C47.69956312 69.17190025 40.45641484 58.80380377 33.20898438 48.43847656 C31.43128887 45.89627485 29.65327509 43.35429632 27.875 40.8125 C27.29613037 39.98508301 26.71726074 39.15766602 26.12084961 38.30517578 C22.32357433 32.88110778 18.51009669 27.46874389 14.6875 22.0625 C11.02903766 16.8838187 7.3752156 11.70202816 3.75 6.5 C3.02296875 5.4584375 2.2959375 4.416875 1.546875 3.34375 C0 1 0 1 0 0 Z " fill="#FDFDFD" transform="translate(3413,415)"/>
<path d="M0 0 C29.37 0 58.74 0 89 0 C89 161.37 89 322.74 89 489 C59.63 489 30.26 489 0 489 C0 327.63 0 166.26 0 0 Z " fill="#FDFDFD" transform="translate(1622,275)"/>
<path d="M0 0 C1.76875488 0.01135986 1.76875488 0.01135986 3.57324219 0.02294922 C12.87658898 0.19797785 20.90697437 1.32773051 29.6875 4.4375 C30.32042969 4.65712402 30.95335938 4.87674805 31.60546875 5.10302734 C46.25319563 10.2670089 57.6502845 17.6738015 68.6875 28.4375 C69.34492188 29.02144531 70.00234375 29.60539063 70.6796875 30.20703125 C83.19395278 41.59674274 89.60044196 58.49098724 93.6875 74.4375 C94.13996094 76.00177734 94.13996094 76.00177734 94.6015625 77.59765625 C101.39133542 103.70972689 95.96915167 133.85868119 83.75 157.5625 C70.56910181 179.80742791 50.51724783 194.1165938 26.0703125 201.53515625 C-1.7614055 207.96937063 -29.29790579 203.47634796 -53.328125 188.56640625 C-74.22389161 174.20802948 -89.06679253 151.57913413 -93.85058594 126.63134766 C-98.68082548 97.27443116 -95.98216872 65.77104997 -78.375 41 C-59.6901805 15.77566918 -31.85160292 -0.28972726 0 0 Z " fill="#74CF4E" transform="translate(3203.3125,487.5625)"/>
<path d="M0 0 C28.400625 -0.1546875 28.400625 -0.1546875 57.375 -0.3125 C63.31935059 -0.35802002 69.26370117 -0.40354004 75.38818359 -0.45043945 C82.73364258 -0.47302246 82.73364258 -0.47302246 86.18911743 -0.47721863 C88.56587425 -0.4848193 90.94261368 -0.50224137 93.31924438 -0.52787781 C117.05214782 -0.7707404 137.98592408 1.89380793 155.95654297 18.80444336 C160.03125339 22.82342066 163.21988368 27.01624632 166 32 C166.56267578 32.91265625 166.56267578 32.91265625 167.13671875 33.84375 C174.38883652 46.56865553 175.03550563 64.45536604 171.75 78.5 C171.19973117 80.34352736 170.61801331 82.17806465 170 84 C169.73316406 84.84691406 169.46632813 85.69382812 169.19140625 86.56640625 C163.91654643 101.54700813 152.88038589 111.5731656 138.953125 118.33691406 C127.23789858 123.8029166 116.35974508 125.15753195 103.53515625 125.11352539 C101.8238578 125.11370619 101.8238578 125.11370619 100.07798767 125.11389065 C96.40613822 125.1131477 92.73434031 125.10554768 89.0625 125.09765625 C86.78710962 125.09618492 84.51171891 125.09516539 82.23632812 125.09460449 C73.82421357 125.08937378 65.41210627 125.07541252 57 125.0625 C28.785 125.0315625 28.785 125.0315625 0 125 C0 83.75 0 42.5 0 0 Z " fill="#74CF4E" transform="translate(2701,554)"/>
<path d="M0 0 C25.74 -0.12375 25.74 -0.12375 52 -0.25 C57.38828125 -0.28641602 62.7765625 -0.32283203 68.328125 -0.36035156 C74.984375 -0.37841797 74.984375 -0.37841797 78.11523438 -0.3817749 C80.26956502 -0.38785703 82.42388335 -0.40179808 84.578125 -0.42230225 C106.64823976 -0.62159089 126.04160833 1.56812613 142.78125 17.546875 C154.42617226 30.42189468 158.85649376 45.53844207 158.37890625 62.609375 C157.48665726 77.12840872 149.63203312 91.30209119 139 101 C125.21739331 111.50021532 111.03526808 116.17940061 93.65844727 116.11352539 C92.62673621 116.11364593 91.59502516 116.11376646 90.53205013 116.11389065 C87.2101465 116.11314745 83.88829978 116.1055463 80.56640625 116.09765625 C78.50842313 116.09618499 76.45043963 116.09516541 74.39245605 116.09460449 C66.78246498 116.0893729 59.17248192 116.07541164 51.5625 116.0625 C26.0390625 116.0315625 26.0390625 116.0315625 0 116 C0 77.72 0 39.44 0 0 Z " fill="#74CF4E" transform="translate(2701,358)"/>
<path d="M0 0 C0.77261169 -0.00988449 1.54522339 -0.01976898 2.34124756 -0.029953 C29.76242573 -0.30842519 56.99524311 1.85364164 81.6796875 15.23828125 C82.57683054 35.83934356 75.29311205 56.20253341 61.3046875 71.48828125 C46.0642753 87.6265621 29.25690619 97.35478092 6.8503418 98.3659668 C-12.79537614 98.86147956 -31.28210962 98.61667362 -47.1953125 85.48828125 C-56.52585525 76.57955327 -61.45441398 64.62266659 -61.7578125 51.80078125 C-61.33165645 38.34249828 -57.98238491 26.30476628 -48.9453125 16.05078125 C-35.92801475 3.93122817 -17.20270374 0.18128496 0 0 Z " fill="#74CF4E" transform="translate(1369.3203125,605.76171875)"/>
<path d="M0 0 C4.20121445 3.46327386 8.11912855 7.18444476 12 11 C12.74378906 11.70769531 13.48757813 12.41539062 14.25390625 13.14453125 C24.34478356 23.47237633 31 38.7165466 31 53 C-25.76 53 -82.52 53 -141 53 C-136.55895908 30.7947954 -120.31836656 9.91506711 -102.1328125 -3 C-92.98768348 -8.83828685 -83.73445111 -13.06452338 -73 -15 C-71.989375 -15.18304688 -70.97875 -15.36609375 -69.9375 -15.5546875 C-45.28518232 -18.34274724 -20.22813676 -15.3769121 0 0 Z " fill="#74CF4E" transform="translate(1049,494)"/>
<path d="M0 0 C51.15 0 102.3 0 155 0 C155 51.48 155 102.96 155 156 C154.67 156 154.34 156 154 156 C153.91363281 155.01644531 153.82726563 154.03289062 153.73828125 153.01953125 C150.00236123 114.60769442 134.51955436 79.06159684 107.39208984 51.42724609 C106.09055886 50.09284586 104.81939514 48.72901391 103.55078125 47.36328125 C77.03166725 19.44150337 37.77366507 4.24512607 0 1 C0 0.67 0 0.34 0 0 Z " fill="#FFFFFF" transform="translate(3829,0)"/>
<path d="M0 0 C0.33 0 0.66 0 1 0 C1 51.48 1 102.96 1 156 C-50.15 156 -101.3 156 -154 156 C-154 155.67 -154 155.34 -154 155 C-153.44352783 154.94054199 -152.88705566 154.88108398 -152.3137207 154.81982422 C-113.35023258 150.49364611 -78.1919512 135.55394382 -50 108 C-48.61748047 106.71029297 -48.61748047 106.71029297 -47.20703125 105.39453125 C-19.32077395 78.76689205 -1.76114809 38.39302843 0 0 Z " fill="#FFFFFF" transform="translate(3983,933)"/>
<path d="M0 0 C50.82 0 101.64 0 154 0 C154 0.33 154 0.66 154 1 C152.70449219 1.15855469 151.40898437 1.31710938 150.07421875 1.48046875 C118.63486298 5.52032907 88.78718692 15.69811357 64 36 C63.46004395 36.43989258 62.92008789 36.87978516 62.36376953 37.33300781 C50.72873461 46.85045971 40.94032141 56.93198921 32 69 C31.56896973 69.58136719 31.13793945 70.16273437 30.69384766 70.76171875 C14.09882084 93.51038855 4.16648562 121.0973049 1 149 C0.67 149 0.34 149 0 149 C0 99.83 0 50.66 0 0 Z " fill="#FFFFFF" transform="translate(0,0)"/>
<path d="M0 0 C0.33 0 0.66 0 1 0 C1.14695313 1.05574219 1.29390625 2.11148438 1.4453125 3.19921875 C7.84485328 46.50393464 29.38973652 87.2643877 64.76953125 113.8671875 C91.48195725 133.48692789 120.96836357 144.86970348 154 148 C154 148.33 154 148.66 154 149 C103.18 149 52.36 149 0 149 C0 99.83 0 50.66 0 0 Z " fill="#FFFFFF" transform="translate(0,940)"/>
</svg>
